<svg width="1213" height="1213" viewBox="0 0 1213 1213" fill="none" xmlns="http://www.w3.org/2000/svg">
<g clip-path="url(#clip0)">
<path d="M258.643 133.708C269.292 137.581 277.969 145.522 282.768 155.787L282.993 156.267C290.95 173.287 287.234 193.482 273.74 206.555L267.025 213.061L255.589 222.948L244.836 232.845L235.552 241.865L226.632 251.043L221.898 256.178L217.051 261.468L207.91 272.065L198.154 283.998L193.557 289.943L188.956 296.082L186.779 298.322C168.402 317.229 137.535 315.46 121.438 294.577L120.158 292.917C109.167 278.657 108.908 258.854 119.522 244.311L120.71 242.709L121.863 241.171L124.181 238.087L128.93 231.937L133.719 225.904L138.609 219.894L146.496 210.613L150.504 206.039L154.559 201.507L156.737 199.117L158.898 196.774L163.309 192.082L172.233 182.847L184.381 171.056L191.017 164.888L197.775 158.812L206.069 151.637L214.466 144.557L223.413 137.771C226.88 135.141 230.812 133.188 235.003 132.014C241.975 130.06 249.384 130.341 256.189 132.816L258.643 133.708Z" fill="#FD7700"/>
<path d="M848.654 47.7834C858.485 55.6003 864.098 67.5631 863.826 80.1206C863.267 105.945 838.848 124.548 813.802 118.23L811.666 117.691L800.348 113.826L793.957 111.742L787.695 109.801L781.114 107.831L774.683 105.925L761.746 102.452L747.977 99.0575L734.369 96.1172L727.456 94.6235L720.689 93.355L717.202 92.6014L713.979 92.1307L710.457 91.5312L706.58 90.9192L701.897 90.1163L695.26 89.1507L688.768 88.2643L685.749 87.9024L682.917 87.5265L679.221 87.1201L676.098 86.7306L673.243 86.4346L664.91 85.6329L658.363 85.0742L652.254 84.6437L645.296 84.1585L640.307 83.8673L631.956 83.5442L626.482 83.3333L620.879 83.2799L610.651 83.1991L602.655 83.1838L594.938 83.4023L584.537 83.7518L573.026 84.3807L561.054 85.2471L553.651 86.023L546.454 86.6607L539.691 87.4499L534.057 88.1371L524.602 89.4988L519.056 90.3203L513.23 91.2474C511.065 91.5918 508.877 91.7648 506.685 91.7649C481.167 91.7656 461.644 69.0246 465.515 43.8018C468.327 25.4824 482.908 11.226 501.286 8.82615L520.418 6.32777L545.132 3.56753L570.734 1.69875L593.384 0.970537L606.737 0.699147L619.014 0.827884L624.831 0.960952L630.629 1.1462L642.142 1.65934L654.945 2.48341L667.849 3.54074L680.794 4.8189L693.39 6.32295L705.837 8.09678L718.114 9.95473L742.087 14.3721L754.751 17.1301L767.199 20.0098L780.047 23.2614L793.166 26.9345L806.312 30.7644L818.528 34.6784L830.539 38.4607L836.334 40.6279C840.487 42.1811 844.37 44.3776 847.841 47.1371L848.654 47.7834Z" fill="#FFFF00"/>
<path d="M1211.79 596.59C1212.7 612.386 1203.27 626.949 1188.47 632.562C1164.71 641.58 1139.29 623.96 1139.39 598.542L1139.44 585.711L1138.52 571.361L1137.96 564.169L1137.3 556.934L1136.52 549.663L1136.11 546.028L1135.65 542.346L1134.67 535.055L1133.59 527.748L1132.39 520.373L1131.74 516.691L1131.07 512.981L1130.37 509.261L1129.64 505.566L1128.14 498.206L1124.71 483.391L1122.86 476.076L1121.92 472.526L1120.63 468.641L1119.82 465.072L1118.82 461.45L1116.69 454.309L1112.1 440.115L1101.57 411.914L1095.33 397.603L1092.11 390.403L1088.73 383.16L1081.75 369.021L1078.11 362.053L1074.34 355.074L1072.49 351.754L1071.55 350.08L1070.63 348.449L1068.69 345.114C1067.43 342.939 1066 340.867 1064.41 338.918L1062.35 335.641L1058.24 329.117L1040.97 304.054L1021.75 279.524L1010.79 266.659L999.444 254.619L988.281 241.178C972.605 222.304 979.251 193.683 1001.64 183.648C1016.32 177.068 1033.57 180.703 1044.34 192.647L1047.34 195.977L1057.9 207.408L1063.03 213.167L1068.02 218.986L1078.03 230.934L1082.85 236.995L1085.24 240.034L1086.43 241.579L1087.61 243.1L1092.4 249.422L1097.1 255.787L1101.68 262.199L1106.17 268.63L1110.47 274.955L1114.78 281.425L1119.07 288.272L1123.22 294.799L1127.24 301.527L1131.2 308.257L1138.69 321.636L1140.58 325.126L1142.42 328.616L1143.36 330.393L1144.28 332.154L1146.08 335.652L1153.19 349.793L1165.71 378.191L1171.71 393.111L1173.14 396.854L1174.53 400.591L1175.91 404.357L1177.25 408.104L1178.55 411.805L1179.82 415.517L1182.28 422.936L1186.9 437.772L1191.22 453.049L1192.2 456.73L1193.13 460.365L1195.04 468.112L1198.59 483.657L1201.41 497.757L1204.02 512.681L1206.23 527.542L1207.31 535.24L1208.15 543.075L1209.51 557.377L1211.79 596.59Z" fill="#28A528"/>
<path d="M1046.99 1018.75C1036.54 1030.63 1019.59 1034.36 1005.12 1027.95C981.874 1017.66 976.176 987.263 994.114 969.254L1003.17 960.164L1012.6 949.306L1017.25 943.796L1021.87 938.188L1026.43 932.471L1028.69 929.594L1030.95 926.649L1035.38 920.779L1039.75 914.817L1044.08 908.73L1046.21 905.657L1048.34 902.547L1050.45 899.408L1052.53 896.268L1056.64 889.977L1064.61 877.026L1068.43 870.521L1070.26 867.334L1072.08 863.669L1074.01 860.561L1075.84 857.28L1079.34 850.7L1086.05 837.377L1098.39 809.92L1104.01 795.354L1106.77 787.967L1109.46 780.44L1114.44 765.48L1116.74 757.963L1118.96 750.344L1119.98 746.686L1120.49 744.834L1120.98 743.027L1121.95 739.294C1122.58 736.859 1123.02 734.378 1123.26 731.874L1124.1 728.1L1125.76 720.568L1131.09 690.6L1134.66 659.645L1135.9 642.788L1136.3 626.25L1137.8 608.843C1139.92 584.4 1164.76 568.712 1187.74 577.309C1202.81 582.946 1212.52 597.654 1211.79 613.724L1211.59 618.203L1211.06 633.756L1210.66 641.452L1210.12 649.101L1208.84 664.635L1208.02 672.339L1207.57 676.174L1207.34 678.115L1207.11 680.023L1206.07 687.886L1204.94 695.718L1203.69 703.502L1202.36 711.227L1200.98 718.755L1199.5 726.382L1197.74 734.268L1196.1 741.827L1194.23 749.441L1192.32 757.012L1188.24 771.789L1187.13 775.599L1185.99 779.381L1185.41 781.306L1184.82 783.2L1183.65 786.955L1178.76 802.008L1167.71 831.011L1161.5 845.843L1159.88 849.507L1158.24 853.144L1156.58 856.793L1154.89 860.398L1153.22 863.946L1151.51 867.48L1148.05 874.487L1140.91 888.288L1133.25 902.192L1131.35 905.497L1129.46 908.736L1125.38 915.592L1116.97 929.144L1109.07 941.155L1100.44 953.605L1091.56 965.727L1086.92 971.962L1082.01 978.126L1072.93 989.259L1046.99 1018.75Z" fill="#28A528"/>
<path d="M636.045 1203.81C620.267 1204.98 605.553 1195.78 599.701 1181.08C590.3 1157.46 607.506 1131.76 632.923 1131.45L645.753 1131.29L660.086 1130.14L667.268 1129.46L674.492 1128.69L681.749 1127.79L685.377 1127.32L689.051 1126.8L696.326 1125.71L703.614 1124.5L710.968 1123.18L714.639 1122.48L718.338 1121.75L722.046 1120.99L725.729 1120.2L733.064 1118.58L747.822 1114.91L755.105 1112.94L758.64 1111.94L762.504 1110.59L766.059 1109.73L769.665 1108.67L776.77 1106.41L790.888 1101.6L818.914 1090.62L833.123 1084.15L840.27 1080.81L847.457 1077.31L861.482 1070.11L868.39 1066.35L875.307 1062.46L878.597 1060.57L880.255 1059.6L881.871 1058.65L885.174 1056.66C887.328 1055.36 889.377 1053.9 891.3 1052.28L894.543 1050.17L901 1045.95L925.78 1028.28L949.996 1008.67L962.683 997.497L974.537 985.958L987.796 974.579C1006.41 958.6 1035.14 964.783 1045.53 987.006C1052.35 1001.58 1049 1018.88 1037.23 1029.85L1033.95 1032.9L1022.69 1043.65L1017.01 1048.86L1011.28 1053.95L999.49 1064.15L993.508 1069.07L990.508 1071.5L988.983 1072.73L987.481 1073.93L981.237 1078.82L974.949 1083.62L968.612 1088.31L962.254 1092.89L956 1097.3L949.601 1101.71L942.824 1106.11L936.365 1110.37L929.703 1114.5L923.038 1118.57L909.781 1126.27L906.322 1128.21L902.863 1130.12L901.101 1131.09L899.355 1132.03L895.886 1133.88L881.863 1141.22L853.671 1154.2L838.85 1160.44L835.13 1161.93L831.416 1163.38L827.673 1164.82L823.948 1166.22L820.269 1167.58L816.578 1168.91L809.199 1171.49L794.441 1176.35L779.235 1180.92L775.571 1181.96L771.951 1182.95L764.236 1184.98L748.751 1188.78L734.698 1191.83L719.818 1194.68L704.995 1197.13L697.316 1198.33L689.495 1199.3L675.217 1200.9L636.045 1203.81Z" fill="#28A528"/>
<circle cx="42" cy="606" r="42" fill="#FF0000"/>
<path d="M840.947 1042.23L850.027 767C850.426 755.744 836.132 746.269 827.391 751.949L815.362 759.766C807.163 765.094 793.682 757.009 792.772 746.169L778.405 576.245C777.494 565.404 764.063 557.288 755.814 562.648L715.603 588.778C707.502 594.043 682.853 604.283 693.049 575.507L693.048 575.507C691.845 564.768 488.07 402.849 609.703 683.036C616.969 678.314 628.454 680.582 631.323 690.325L679.562 853.249C682.432 862.993 694.359 868.856 701.626 864.134L735.946 841.832C743.212 837.11 754.999 842.891 757.966 852.569L814.714 1039.38C819.177 1054.19 840.489 1056.49 840.947 1042.23Z" fill="black"/>
</g>
<defs>
<clipPath id="clip0">
<rect width="1213" height="1213" fill="white"/>
</clipPath>
</defs>
</svg>
